<?xml version="1.0" encoding="utf-8" standalone="no"?>
<!DOCTYPE svg PUBLIC "-//W3C//DTD SVG 1.1//EN" "http://www.w3.org/Graphics/SVG/1.1/DTD/svg11-flat-20030114.dtd">
<!-- Created by SVGDeveloper 1.0 -->
<svg width="40" height="40" version="1.1" xmlns="http://www.w3.org/2000/svg" xmlns:xlink="http://www.w3.org/1999/xlink">
<path d="M333.967,103.898v102.655c-3.299-2.262-8.793-2.929-15.208-2.929 c-7.328,0-16.121,2.663-23.084,6.791c-6.963,3.993-12.092,9.454-12.092,14.913c0,3.461,2.017,6.39,5.498,8.386 c3.295,1.999,8.059,3.197,13.191,3.197c8.059,0,17.221-2.397,24.184-6.391c7.145-3.995,12.092-9.454,12.092-15.446V103.898 H333.967z" transform="matrix(0.499,0,0,0.246,-135.877,-21.552)" fill="#FFCC99" stroke="none" stroke-opacity="0" xmlns="http://www.w3.org/2000/svg" />
<path d="M303.361,245.736v-21.438l-15.628,2.549v-39.695h-9.78v41.181 l-22.148,3.601v-39.688h-9.77v41.389l-15.642,2.547v21.437l15.642-2.547v30.359l-15.642,2.547v22.077l15.642-2.547v39.686 h9.77v-41.388l22.148-3.61v38.209h9.78V300.71l15.628-2.549v-22.075l-15.628,2.547v-30.35L303.361,245.736z M277.953,280.119 l-22.148,3.61v-30.35l22.148-3.61V280.119z" transform="matrix(0.29,0,0,0.133,-58.397,-18.922)" fill="#66CC66" stroke="none" stroke-opacity="0" xmlns="http://www.w3.org/2000/svg" />
</svg>